Coordinates
version=1
nRows=20
nColumns=38
inDegrees=no

Units are S.I. units (second, meters, Newtons, ...)
If the header above contains a line with 'inDegrees', this indicates whether rotational values are in degrees (yes) or radians (no).

endheader
time	pelvis_tilt	pelvis_list	pelvis_rotation	pelvis_tx	pelvis_ty	pelvis_tz	hip_flexion_r	hip_adduction_r	hip_rotation_r	knee_angle_r	ankle_angle_r	subtalar_angle_r	mtp_angle_r	hip_flexion_l	hip_adduction_l	hip_rotation_l	knee_angle_l	ankle_angle_l	subtalar_angle_l	mtp_angle_l	lumbar_extension	lumbar_bending	lumbar_rotation	arm_flex_r	arm_add_r	arm_rot_r	elbow_flex_r	pro_sup_r	wrist_flex_r	wrist_dev_r	arm_flex_l	arm_add_l	arm_rot_l	elbow_flex_l	pro_sup_l	wrist_flex_l	wrist_dev_l
20	3.02699	1.33541	-1.35419	0.676713	-0.486102	0.952516	-0.356569	0.06719	-0.0459482	0.0767703	-0.261104	0	0	0.0133671	-0.0741177	-0.0157262	0.791448	-0.125055	0	0	-0.438746	0.00134959	0.207905	0.481736	-0.50913	0.324116	1.73082	1.5708	0	0	0.650332	-0.220468	0.402623	1.49899	1.5708	0	0
20.01	3.02822	1.33618	-1.35765	0.677697	-0.484459	0.952451	-0.358712	0.067281	-0.047717	0.0734224	-0.262043	0	0	0.0243629	-0.0743917	-0.0274149	0.790188	-0.127306	0	0	-0.438747	0.000776599	0.207299	0.48235	-0.500272	0.320181	1.72766	1.5708	0	0	0.649825	-0.219152	0.394358	1.4966	1.5708	0	0
20.02	3.03141	1.33757	-1.36351	0.678712	-0.482833	0.952336	-0.358751	0.0663275	-0.0468257	0.0744651	-0.261834	0	0	0.0330788	-0.0721122	-0.0333679	0.782302	-0.131321	0	0	-0.438465	-0.000949222	0.209289	0.486916	-0.497498	0.321692	1.72407	1.5708	0	0	0.651742	-0.21722	0.389989	1.4927	1.5708	0	0
20.03	3.03505	1.33812	-1.36914	0.679584	-0.48132	0.952275	-0.360248	0.0656143	-0.0469269	0.0737701	-0.261511	0	0	0.0406695	-0.0695014	-0.036633	0.772137	-0.135865	0	0	-0.43928	-0.00250131	0.211041	0.492248	-0.496416	0.324128	1.72083	1.5708	0	0	0.654823	-0.215043	0.386799	1.48813	1.5708	0	0
20.04	3.03721	1.33803	-1.37308	0.680394	-0.47981	0.952243	-0.362361	0.0654925	-0.0463111	0.0731613	-0.260704	0	0	0.0474726	-0.0674248	-0.0385162	0.760444	-0.140964	0	0	-0.440769	-0.0035158	0.212507	0.498116	-0.495291	0.326768	1.7174	1.5708	0	0	0.658373	-0.212798	0.383727	1.48304	1.5708	0	0
20.05	3.03874	1.33815	-1.37615	0.681212	-0.478219	0.952142	-0.364416	0.0656789	-0.0456433	0.0722412	-0.259632	0	0	0.0545333	-0.0658791	-0.0399066	0.748075	-0.146659	0	0	-0.441779	-0.00446092	0.213759	0.503964	-0.493808	0.329457	1.71366	1.5708	0	0	0.661639	-0.21102	0.380699	1.47864	1.5708	0	0
20.06	3.03992	1.33857	-1.37876	0.682051	-0.47661	0.95199	-0.366848	0.0661323	-0.0453505	0.0690614	-0.259529	0	0	0.0618254	-0.0647245	-0.0407882	0.734964	-0.152894	0	0	-0.442445	-0.00546492	0.214755	0.50999	-0.492096	0.332598	1.70969	1.5708	0	0	0.664159	-0.209624	0.377014	1.4754	1.5708	0	0
20.07	3.04283	1.33889	-1.38334	0.682871	-0.474995	0.951739	-0.368152	0.0659062	-0.042768	0.0698696	-0.258207	0	0	0.0688033	-0.0634534	-0.0420222	0.721237	-0.158662	0	0	-0.443327	-0.00707224	0.21548	0.516193	-0.490176	0.335984	1.7059	1.5708	0	0	0.666043	-0.208347	0.372407	1.47316	1.5708	0	0
20.08	3.04541	1.33885	-1.38717	0.683578	-0.473448	0.951531	-0.370239	0.0659369	-0.0410347	0.0694124	-0.257091	0	0	0.0754186	-0.0622854	-0.0425145	0.706972	-0.163677	0	0	-0.444803	-0.00818994	0.215573	0.52273	-0.488121	0.339374	1.7019	1.5708	0	0	0.668438	-0.207001	0.368206	1.47035	1.5708	0	0
20.09	3.04775	1.33881	-1.39076	0.684292	-0.471793	0.951314	-0.372522	0.0660384	-0.0393542	0.0689071	-0.25594	0	0	0.0817881	-0.0615047	-0.0433832	0.692756	-0.168653	0	0	-0.445923	-0.00938544	0.215736	0.528632	-0.485801	0.342123	1.69782	1.5708	0	0	0.67127	-0.205958	0.364777	1.46711	1.5708	0	0
20.1	3.04959	1.33886	-1.39395	0.685017	-0.470042	0.951108	-0.374879	0.0661905	-0.0374981	0.0685461	-0.253945	0	0	0.0879771	-0.0612878	-0.0451144	0.678393	-0.173615	0	0	-0.446654	-0.0105974	0.216151	0.533775	-0.483139	0.344052	1.69391	1.5708	0	0	0.674277	-0.20545	0.361893	1.46383	1.5708	0	0
20.11	3.05111	1.33873	-1.39662	0.685694	-0.468247	0.950931	-0.377476	0.0664173	-0.0359074	0.0682703	-0.251794	0	0	0.0940358	-0.0615862	-0.0477613	0.664416	-0.180088	0	0	-0.447592	-0.0116736	0.216377	0.538939	-0.48055	0.346002	1.69015	1.5708	0	0	0.677294	-0.204556	0.359085	1.4602	1.5708	0	0
20.12	3.05231	1.33872	-1.39889	0.686344	-0.466395	0.950758	-0.379969	0.0666791	-0.0347734	0.0680266	-0.249965	0	0	0.10018	-0.0624599	-0.0519068	0.650623	-0.188374	0	0	-0.448404	-0.0128673	0.216494	0.543946	-0.477906	0.347924	1.68616	1.5708	0	0	0.680078	-0.20343	0.356132	1.45649	1.5708	0	0
20.13	3.05312	1.33885	-1.40089	0.687011	-0.464473	0.950568	-0.382375	0.0670237	-0.0338847	0.0675473	-0.248628	0	0	0.106322	-0.0637971	-0.0574121	0.637089	-0.198317	0	0	-0.448925	-0.0140607	0.216894	0.548607	-0.475263	0.349907	1.68209	1.5708	0	0	0.682859	-0.202539	0.353465	1.45254	1.5708	0	0
20.14	3.05332	1.33921	-1.40253	0.687691	-0.46252	0.950379	-0.384464	0.0673908	-0.0327004	0.0671212	-0.247408	0	0	0.112257	-0.0653705	-0.0636687	0.62299	-0.210112	0	0	-0.449143	-0.0151286	0.217719	0.552936	-0.472599	0.351894	1.6782	1.5708	0	0	0.686042	-0.202042	0.351311	1.44821	1.5708	0	0
20.15	3.05463	1.33999	-1.40461	0.688331	-0.460559	0.950172	-0.386175	0.0676553	-0.0323689	0.0669467	-0.245961	0	0	0.117833	-0.066086	-0.0681271	0.607389	-0.223224	0	0	-0.448975	-0.0163892	0.217908	0.557063	-0.469978	0.353879	1.67466	1.5708	0	0	0.68947	-0.20179	0.349715	1.44384	1.5708	0	0
20.16	3.05622	1.34186	-1.40683	0.689048	-0.45855	0.949916	-0.386564	0.0678183	-0.0322851	0.0672737	-0.244058	0	0	0.122382	-0.0651721	-0.0673641	0.587545	-0.23847	0	0	-0.447749	-0.0183673	0.217706	0.560745	-0.467062	0.355321	1.67134	1.5708	0	0	0.693058	-0.20149	0.348385	1.4396	1.5708	0	0
20.17	3.06071	1.344	-1.4114	0.689689	-0.45661	0.949708	-0.386463	0.0672376	-0.0329828	0.0682562	-0.242078	0	0	0.124119	-0.0611362	-0.057705	0.561338	-0.251557	0	0	-0.446808	-0.0210138	0.216918	0.564211	-0.46412	0.355837	1.6683	1.5708	0	0	0.696832	-0.201141	0.346993	1.43598	1.5708	0	0
20.18	3.0648	1.34586	-1.41563	0.690244	-0.454655	0.949506	-0.386645	0.0666481	-0.0332099	0.0691282	-0.24033	0	0	0.124641	-0.0572457	-0.046829	0.533579	-0.263624	0	0	-0.446137	-0.0232406	0.216565	0.56753	-0.461606	0.356255	1.66548	1.5708	0	0	0.700481	-0.200906	0.345578	1.43264	1.5708	0	0
20.19	3.06676	1.34742	-1.41764	0.690764	-0.452566	0.949241	-0.387279	0.0666735	-0.0338028	0.0694955	-0.239077	0	0	0.125981	-0.0553029	-0.0395074	0.509053	-0.27396	0	0	-0.445408	-0.0249544	0.216184	0.57049	-0.458888	0.356569	1.66261	1.5708	0	0	0.703763	-0.200729	0.344375	1.42951	1.5708	0	0
